<?xml version="1.0" standalone="no"?>
<!DOCTYPE svg PUBLIC "-//W3C//DTD SVG 20010904//EN"
 "http://www.w3.org/TR/2001/REC-SVG-20010904/DTD/svg10.dtd">
<svg version="1.0" xmlns="http://www.w3.org/2000/svg"
width="50px" height="39px" viewBox="0 0 350.000000 298.000000"
 preserveAspectRatio="xMidYMid meet">

<g transform="translate(0.000000,298.000000) scale(0.100000,-0.100000)"
fill="#000000" stroke="none">
<path d="M0 1490 l0 -1490 1785 0 1785 0 0 1490 0 1490 -1785 0 -1785 0 0
-1490z m2046 1151 c191 -40 366 -136 525 -288 80 -77 207 -238 197 -249 -3 -2
-99 -3 -214 -2 l-209 3 87 45 87 44 -32 28 c-47 40 -184 131 -242 160 -259
131 -565 153 -843 62 -150 -50 -338 -158 -465 -267 -32 -27 -60 -47 -62 -45
-9 9 79 130 143 195 161 165 370 273 617 317 118 21 301 20 411 -3z m-620
-728 c42 -65 79 -123 81 -130 4 -10 -36 -13 -192 -13 -157 0 -196 -3 -193 -13
4 -17 281 -427 289 -427 3 0 50 65 104 145 54 80 102 145 106 145 16 0 151
-230 145 -246 -3 -9 -47 -75 -96 -148 -50 -73 -90 -138 -90 -144 0 -7 86 -140
190 -297 105 -157 190 -288 190 -292 0 -18 -144 -223 -152 -215 -8 8 -204 297
-653 961 -126 188 -296 439 -378 559 l-147 217 42 6 c24 3 186 7 361 7 l317 2
76 -117z m1572 109 c-1 -5 -63 -97 -137 -205 l-133 -197 -155 0 c-121 0 -153
3 -147 13 4 6 25 38 46 69 21 31 38 59 38 62 0 4 -131 6 -291 6 l-290 0 142
-210 c78 -116 145 -213 149 -215 4 -3 24 20 44 50 l36 55 150 0 c99 0 150 -4
150 -11 0 -12 -371 -559 -379 -559 -3 0 -61 83 -128 183 -66 100 -237 353
-378 562 -142 209 -260 386 -262 393 -4 9 154 12 772 12 427 0 775 -4 773 -8z
m-2138 -454 c71 -105 128 -193 126 -195 -2 -3 -26 9 -52 26 -48 29 -49 30 -52
9 -8 -49 58 -279 109 -381 99 -196 333 -442 501 -528 59 -30 40 -33 -34 -6
-218 83 -430 242 -547 411 -122 178 -185 368 -198 596 -5 95 3 260 12 260 3 0
63 -86 135 -192z m2047 -15 c-7 -177 -28 -295 -76 -418 -92 -238 -311 -468
-557 -585 -73 -35 -235 -92 -242 -85 -5 5 16 39 146 238 57 87 105 157 107
155 2 -2 -2 -29 -7 -61 -6 -32 -7 -61 -4 -64 13 -13 184 115 267 199 179 180
289 393 342 666 12 61 24 112 26 112 2 0 1 -71 -2 -157z"/>
</g>
</svg>
